<?xml version="1.0" encoding="utf-8"?>
<!-- Generator: Adobe Illustrator 28.2.0, SVG Export Plug-In . SVG Version: 6.00 Build 0)  -->
<svg version="1.1" id="FM_cópia_2" xmlns="http://www.w3.org/2000/svg" xmlns:xlink="http://www.w3.org/1999/xlink" x="0px"
	 y="0px" viewBox="0 0 1280 1280" style="enable-background:new 0 0 1280 1280;" xml:space="preserve">
<style type="text/css">
	.st0{stroke:#000000;stroke-width:0.7972;stroke-linecap:round;stroke-miterlimit:10;}
	.st1{stroke:#000000;stroke-width:1.0377;stroke-linecap:round;stroke-miterlimit:10;}
</style>
<path d="M971.8,150.7h1.2l2.5,16.2v48.8l-3.8,28.8l-7.5,30l-10,25l-13.8,26.2L928,343.2l-15,17.5l-10,10l-17.5,13.8L866.8,397
	l-26.2,13.8l-21.2,8.8l-2.5-1.2l5-13.8L838,392l12.5-10l12.5-11.2l15-15l10-13.8l10-17.5v-3.8L886.8,332L873,343.2l-21.2,15
	l-22.5,12.5l-28.8,13.8l-31.2,11.2l-30,8.8l-3.8,1.2l28.8-3.8l22.5-5l-6.2,12.5l-7.5,6.2l-20,7.5l-22.5,5l-32.5,2.5L519.2,432
	l-18.8,5l-22.5,8.8l-26.2,12.5l-23.8,15l-5,2.5V323.2l280-1.2l31.2-2.5l36.2-6.2l25-6.2l26.2-8.8l25-11.2l20-11.2l16.2-12.5l8.8-10
	l5-11.2v-13.8l-5-8.8l-5-3.8l-10-1.2l-6.2,3.8l-2.5,2.5v10l5,5l8.8-1.2l2.5-1.2v8.8l-5,7.5l-6.2,3.8l-7.5,1.2l-10-3.8l-8.8-10
	l-3.8-10v-11.2l5-12.5l10-10l12.5-5H888l10,3.8l8.8,6.2l7.5,11.2l5,13.8l1.2,7.5l11.2-12.5l15-21.2l11.2-20l11.2-23.8L971.8,150.7z"
	/>
<path d="M516.8,452h3.8v18.8l-5,8.8l-12.5,8.8l-28.8,16.2l-20,15l-12.5,11.2l-2.5,3.8l17.5-11.2l26.2-12.5l23.8-7.5l12.5-2.5
	l22.5-1.2l17.5,2.5l13.8,5l13.8,7.5l13.8,12.5l8.8,13.8l5,13.8v6.2l-8.8-7.5l-12.5-8.8l-13.8-6.2l-13.8-3.8l-7.5-1.2h-30l-22.5,3.8
	l-26.2,8.8l-23.8,12.5L438,570.7l-15,13.8l-8.8,8.8l-12.5,17.5l-10,20l-6.2,23.8l-2.5,10h2.5l1.2-7.5l10-20l13.8-20l17.5-18.8
	l17.5-15l18.8-12.5l20-10l13.8-5l12.5-1.2l10,3.8l5,6.2l1.2,3.8v12.5l-5,7.5l-6.2,5l-20,10l-15,8.8l-16.2,13.8l-8.8,8.8l-8.8,10
	l5-2.5l18.8-12.5l26.2-13.8l31.2-11.2l25-5l25-2.5l23.8-1.2l12.5-3.8l10-6.2l8.8-10l5-10l1.2,5l-1.2,400l-6.2-6.2l-15-21.2
	l-16.2-22.5l-13.8-20l-1.2-2.5v-215l1.2-5l-30,1.2l-23.8,3.8l-32.5,10l-31.2,15l-20,12.5L435.5,732L423,743.2l-13.8,15L396.8,777
	l-3.8,5l-11.2-13.8l-15-25l-11.2-23.8L348,697l-5-26.2l-1.2-26.2l1.2-20l5-23.8l8.8-22.5l10-18.8l15-20l15-16.2l12.5-11.2l20-15
	l23.8-15l33.8-17.5L516.8,452z"/>
<path d="M898,658.2h1.2v380l-1.2,45l-11.2-3.8L838,1057l-33.8-15l-3.8-2.5v-310l21.2-16.2l22.5-16.2l17.5-12.5l23.8-17.5L898,658.2z
	"/>
<path d="M956.8,422l2.5,1.2l1.2,10V462l-3.8,26.2l-7.5,25l-10,22.5L928,553.2l-8.8,11.2L908,577l-15,15l-25,18.8l-22.5,13.8
	l-31.2,18.8l-20,12.5l-17.5,13.8l-16.2,16.2l-8.8,12.5l-10,20l-3.8,16.2l-1.2,57.5l-1.2,107.5L686.8,967l-3.8,3.8V738.2l1.2-35l5-25
	l7.5-20l11.2-20l12.5-16.2l21.2-21.2l20-15l16.2-10l26.2-15l12.5-7.5l15-7.5l33.8-20l22.5-16.2l16.2-13.8l20-20l12.5-16.2l12.5-20
	L956.8,422z"/>
<path d="M544.2,699.5l3.8,1.2l-2.5,6.2l-23.8,15l-1.2,316.2L503,1047l-25,11.2l-35,16.2l-17.5,8.8H423V810.7l2.5-7.5l-10,10
	l-10,17.5l-2.5,7.5h-1.2v-12.5l3.8-20l6.2-15l11.2-17.5l15-17.5l16.2-13.8l20-13.8l17.5-10l23.8-10l23.8-7.5L544.2,699.5z"/>
<path d="M929.2,578.2l1.2,3.8l-7.5,20l-8.8,15l-13.8,15l-8.8,8.8L870.5,657l-28.8,20l-22.5,16.2l-22.5,17.5L783,722l-11.2,11.2
	l-12.5,16.2l-5,10h-2.5v-13.8l3.8-17.5l10-18.8l10-12.5l15-15l18.8-13.8l23.8-15l20-12.5l31.2-20l17.5-13.8l12.5-11.2l5-2.5l2.5-5
	L929.2,578.2z"/>
<path d="M929.2,578.2l1.2,3.8l-3.8,8.8L923,592v-5L929.2,578.2z"/>
<path class="st0" d="M691.7,484.6c44.6,12.8,136-12.5,169.5-31c0,0-40.3,57-109.7,68.6C698,531.1,698,491.9,691.7,484.6z"/>
<path class="st1" d="M890.7,295.5c66.4-40.2-5.3,81-57.8,117.6c-26.2,18.3-217.7,27.6-269.1,3.1"/>
</svg>
