<svg width="32" height="32" viewBox="0 0 32 32" fill="none" xmlns="http://www.w3.org/2000/svg">
<path fill-rule="evenodd" clip-rule="evenodd" d="M22.1069 14.6825L19.0537 11.6354V11.6221C18.5203 11.0898 18.5203 10.2515 19.0537 9.73254C19.5737 9.20028 20.4137 9.20028 20.947 9.73254L26.2803 15.0552C26.595 15.3612 26.7193 15.7939 26.653 16.203C26.6017 16.5577 26.4089 16.8683 26.1339 17.0755L20.9327 22.2662C20.6794 22.5057 20.3327 22.6521 19.9861 22.6521L19.9994 22.6668C19.6394 22.6668 19.2927 22.5204 19.0527 22.2809C18.5194 21.7619 18.5194 20.9103 19.0394 20.3913V20.378L22.0797 17.3438H6.66668C5.92001 17.3438 5.33334 16.745 5.33334 16.0132C5.33334 15.268 5.92001 14.6825 6.66668 14.6825H22.1069Z" fill="#EDF5F1"/>
</svg>
