<svg width="36" height="36" viewBox="0 0 36 36" fill="none" xmlns="http://www.w3.org/2000/svg">
<path fill-rule="evenodd" clip-rule="evenodd" d="M24.8703 16.5178L21.4354 13.0898V13.0748C20.8354 12.476 20.8354 11.5329 21.4354 10.9491C22.0204 10.3503 22.9654 10.3503 23.5654 10.9491L29.5653 16.937C29.9194 17.2813 30.0591 17.7681 29.9847 18.2282C29.927 18.6272 29.7101 18.9766 29.4009 19.2097L23.5493 25.0495C23.2643 25.319 22.8743 25.4836 22.4843 25.4836L22.4993 25.5001C22.0943 25.5001 21.7043 25.3354 21.4343 25.066C20.8343 24.4822 20.8343 23.5241 21.4193 22.9403V22.9253L24.8397 19.5118H7.5C6.66 19.5118 6 18.8381 6 18.0148C6 17.1765 6.66 16.5178 7.5 16.5178H24.8703Z" fill="url(#paint0_linear)"/>
<defs>
<linearGradient id="paint0_linear" x1="30.0041" y1="10.5" x2="6" y2="10.5" gradientUnits="userSpaceOnUse">
<stop stop-color="#38EF7D"/>
<stop offset="1" stop-color="#11998E"/>
</linearGradient>
</defs>
</svg>
